<mxfile host="app.diagrams.net" modified="2021-05-18T06:32:18.330Z" agent="5.0 (Windows)" etag="LjLEjfiVwSL3aQ2rxO9U" version="14.6.12" type="github">
  <diagram id="8UxI5zDDSqNZYO5CYFuw" name="第 1 页">
    <mxGraphModel dx="1409" dy="733" grid="1" gridSize="10" guides="1" tooltips="1" connect="1" arrows="1" fold="1" page="1" pageScale="1" pageWidth="3300" pageHeight="4681" math="0" shadow="0">
      <root>
        <mxCell id="0" />
        <mxCell id="1" parent="0" />
        <mxCell id="91bVKzT9zRqBgBeDqGgl-28" value="" style="group" vertex="1" connectable="0" parent="1">
          <mxGeometry x="200" y="40" width="560" height="120" as="geometry" />
        </mxCell>
        <mxCell id="91bVKzT9zRqBgBeDqGgl-25" value="" style="rounded=0;whiteSpace=wrap;html=1;fillColor=#f9f7ed;strokeColor=#36393d;" vertex="1" parent="91bVKzT9zRqBgBeDqGgl-28">
          <mxGeometry width="560" height="120" as="geometry" />
        </mxCell>
        <mxCell id="91bVKzT9zRqBgBeDqGgl-1" value="已标注数据集" style="rounded=0;whiteSpace=wrap;html=1;gradientColor=#b3b3b3;fillColor=#f5f5f5;strokeColor=#666666;" vertex="1" parent="91bVKzT9zRqBgBeDqGgl-28">
          <mxGeometry x="40" y="40" width="80" height="40" as="geometry" />
        </mxCell>
        <mxCell id="91bVKzT9zRqBgBeDqGgl-2" value="预处理" style="rounded=0;whiteSpace=wrap;html=1;gradientColor=#b3b3b3;fillColor=#f5f5f5;strokeColor=#666666;" vertex="1" parent="91bVKzT9zRqBgBeDqGgl-28">
          <mxGeometry x="160" y="40" width="80" height="40" as="geometry" />
        </mxCell>
        <mxCell id="91bVKzT9zRqBgBeDqGgl-6" value="" style="edgeStyle=orthogonalEdgeStyle;rounded=0;orthogonalLoop=1;jettySize=auto;html=1;" edge="1" parent="91bVKzT9zRqBgBeDqGgl-28" source="91bVKzT9zRqBgBeDqGgl-1" target="91bVKzT9zRqBgBeDqGgl-2">
          <mxGeometry relative="1" as="geometry" />
        </mxCell>
        <mxCell id="91bVKzT9zRqBgBeDqGgl-3" value="深度学习网络" style="rounded=0;whiteSpace=wrap;html=1;gradientColor=#b3b3b3;fillColor=#f5f5f5;strokeColor=#666666;" vertex="1" parent="91bVKzT9zRqBgBeDqGgl-28">
          <mxGeometry x="280" y="40" width="80" height="40" as="geometry" />
        </mxCell>
        <mxCell id="91bVKzT9zRqBgBeDqGgl-7" value="" style="edgeStyle=orthogonalEdgeStyle;rounded=0;orthogonalLoop=1;jettySize=auto;html=1;" edge="1" parent="91bVKzT9zRqBgBeDqGgl-28" source="91bVKzT9zRqBgBeDqGgl-2" target="91bVKzT9zRqBgBeDqGgl-3">
          <mxGeometry relative="1" as="geometry" />
        </mxCell>
        <mxCell id="91bVKzT9zRqBgBeDqGgl-4" value="模型文件:模型参数" style="rounded=0;whiteSpace=wrap;html=1;gradientColor=#b3b3b3;fillColor=#f5f5f5;strokeColor=#666666;" vertex="1" parent="91bVKzT9zRqBgBeDqGgl-28">
          <mxGeometry x="400" y="40" width="110" height="40" as="geometry" />
        </mxCell>
        <mxCell id="91bVKzT9zRqBgBeDqGgl-8" value="" style="edgeStyle=orthogonalEdgeStyle;rounded=0;orthogonalLoop=1;jettySize=auto;html=1;" edge="1" parent="91bVKzT9zRqBgBeDqGgl-28" source="91bVKzT9zRqBgBeDqGgl-3" target="91bVKzT9zRqBgBeDqGgl-4">
          <mxGeometry relative="1" as="geometry" />
        </mxCell>
        <mxCell id="91bVKzT9zRqBgBeDqGgl-32" value="&lt;h1&gt;训练&lt;/h1&gt;" style="text;html=1;strokeColor=none;fillColor=none;align=center;verticalAlign=middle;whiteSpace=wrap;rounded=0;" vertex="1" parent="91bVKzT9zRqBgBeDqGgl-28">
          <mxGeometry width="80" height="40" as="geometry" />
        </mxCell>
        <mxCell id="91bVKzT9zRqBgBeDqGgl-145" value="" style="group" vertex="1" connectable="0" parent="1">
          <mxGeometry x="200" y="360" width="1040" height="170" as="geometry" />
        </mxCell>
        <mxCell id="91bVKzT9zRqBgBeDqGgl-144" value="" style="group" vertex="1" connectable="0" parent="91bVKzT9zRqBgBeDqGgl-145">
          <mxGeometry width="1040" height="170" as="geometry" />
        </mxCell>
        <mxCell id="91bVKzT9zRqBgBeDqGgl-142" value="" style="rounded=0;whiteSpace=wrap;html=1;fillColor=#ffcc99;strokeColor=#36393d;" vertex="1" parent="91bVKzT9zRqBgBeDqGgl-144">
          <mxGeometry width="1040" height="170" as="geometry" />
        </mxCell>
        <mxCell id="91bVKzT9zRqBgBeDqGgl-143" value="&lt;h1&gt;pytorch_2_tensorrt&lt;/h1&gt;" style="text;html=1;strokeColor=none;fillColor=none;align=center;verticalAlign=middle;whiteSpace=wrap;rounded=0;" vertex="1" parent="91bVKzT9zRqBgBeDqGgl-144">
          <mxGeometry x="10" y="130" width="220" height="30" as="geometry" />
        </mxCell>
        <mxCell id="91bVKzT9zRqBgBeDqGgl-141" value="" style="group" vertex="1" connectable="0" parent="91bVKzT9zRqBgBeDqGgl-145">
          <mxGeometry x="40" width="910" height="120" as="geometry" />
        </mxCell>
        <mxCell id="91bVKzT9zRqBgBeDqGgl-134" value="" style="group" vertex="1" connectable="0" parent="91bVKzT9zRqBgBeDqGgl-141">
          <mxGeometry y="60" width="910" height="60" as="geometry" />
        </mxCell>
        <mxCell id="91bVKzT9zRqBgBeDqGgl-129" value="" style="rounded=0;whiteSpace=wrap;html=1;strokeColor=#36393d;fillColor=#6E5842;" vertex="1" parent="91bVKzT9zRqBgBeDqGgl-134">
          <mxGeometry width="910" height="60" as="geometry" />
        </mxCell>
        <mxCell id="91bVKzT9zRqBgBeDqGgl-115" value="学习框架:pytorch" style="rounded=0;whiteSpace=wrap;html=1;gradientColor=#b3b3b3;fillColor=#f5f5f5;strokeColor=#666666;" vertex="1" parent="91bVKzT9zRqBgBeDqGgl-134">
          <mxGeometry x="170" y="10" width="120" height="40" as="geometry" />
        </mxCell>
        <mxCell id="91bVKzT9zRqBgBeDqGgl-116" value="" style="edgeStyle=orthogonalEdgeStyle;rounded=0;orthogonalLoop=1;jettySize=auto;html=1;" edge="1" parent="91bVKzT9zRqBgBeDqGgl-134" source="91bVKzT9zRqBgBeDqGgl-117" target="91bVKzT9zRqBgBeDqGgl-115">
          <mxGeometry relative="1" as="geometry" />
        </mxCell>
        <mxCell id="91bVKzT9zRqBgBeDqGgl-117" value="模型文件:模型参数" style="rounded=0;whiteSpace=wrap;html=1;gradientColor=#b3b3b3;fillColor=#f5f5f5;strokeColor=#666666;" vertex="1" parent="91bVKzT9zRqBgBeDqGgl-134">
          <mxGeometry x="10" y="10" width="120" height="40" as="geometry" />
        </mxCell>
        <mxCell id="91bVKzT9zRqBgBeDqGgl-119" value="txt模型参数" style="rounded=0;whiteSpace=wrap;html=1;gradientColor=#b3b3b3;fillColor=#f5f5f5;strokeColor=#666666;" vertex="1" parent="91bVKzT9zRqBgBeDqGgl-134">
          <mxGeometry x="330" y="10" width="120" height="40" as="geometry" />
        </mxCell>
        <mxCell id="91bVKzT9zRqBgBeDqGgl-133" value="" style="edgeStyle=orthogonalEdgeStyle;rounded=0;orthogonalLoop=1;jettySize=auto;html=1;" edge="1" parent="91bVKzT9zRqBgBeDqGgl-134" source="91bVKzT9zRqBgBeDqGgl-115" target="91bVKzT9zRqBgBeDqGgl-119">
          <mxGeometry relative="1" as="geometry" />
        </mxCell>
        <mxCell id="91bVKzT9zRqBgBeDqGgl-121" value="tensorrt构建深度学习网络" style="rounded=0;whiteSpace=wrap;html=1;gradientColor=#b3b3b3;fillColor=#f5f5f5;strokeColor=#666666;" vertex="1" parent="91bVKzT9zRqBgBeDqGgl-134">
          <mxGeometry x="490" y="10" width="160" height="40" as="geometry" />
        </mxCell>
        <mxCell id="91bVKzT9zRqBgBeDqGgl-123" value="" style="edgeStyle=orthogonalEdgeStyle;rounded=0;orthogonalLoop=1;jettySize=auto;html=1;" edge="1" parent="91bVKzT9zRqBgBeDqGgl-134" source="91bVKzT9zRqBgBeDqGgl-119" target="91bVKzT9zRqBgBeDqGgl-121">
          <mxGeometry relative="1" as="geometry" />
        </mxCell>
        <mxCell id="91bVKzT9zRqBgBeDqGgl-122" value="engine模型文件" style="rounded=0;whiteSpace=wrap;html=1;gradientColor=#b3b3b3;fillColor=#f5f5f5;strokeColor=#666666;" vertex="1" parent="91bVKzT9zRqBgBeDqGgl-134">
          <mxGeometry x="690" y="10" width="120" height="40" as="geometry" />
        </mxCell>
        <mxCell id="91bVKzT9zRqBgBeDqGgl-124" value="" style="edgeStyle=orthogonalEdgeStyle;rounded=0;orthogonalLoop=1;jettySize=auto;html=1;" edge="1" parent="91bVKzT9zRqBgBeDqGgl-134" source="91bVKzT9zRqBgBeDqGgl-121" target="91bVKzT9zRqBgBeDqGgl-122">
          <mxGeometry relative="1" as="geometry" />
        </mxCell>
        <mxCell id="91bVKzT9zRqBgBeDqGgl-131" value="&lt;h2&gt;法二&lt;/h2&gt;" style="text;html=1;strokeColor=none;fillColor=none;align=center;verticalAlign=middle;whiteSpace=wrap;rounded=0;" vertex="1" parent="91bVKzT9zRqBgBeDqGgl-134">
          <mxGeometry x="830" y="10" width="50" height="40" as="geometry" />
        </mxCell>
        <mxCell id="91bVKzT9zRqBgBeDqGgl-140" value="" style="group" vertex="1" connectable="0" parent="91bVKzT9zRqBgBeDqGgl-141">
          <mxGeometry width="700" height="60" as="geometry" />
        </mxCell>
        <mxCell id="91bVKzT9zRqBgBeDqGgl-126" value="" style="rounded=0;whiteSpace=wrap;html=1;strokeColor=#36393d;fillColor=#6E5842;" vertex="1" parent="91bVKzT9zRqBgBeDqGgl-140">
          <mxGeometry width="700" height="60" as="geometry" />
        </mxCell>
        <mxCell id="91bVKzT9zRqBgBeDqGgl-53" value="深度学习网络" style="rounded=0;whiteSpace=wrap;html=1;gradientColor=#b3b3b3;fillColor=#f5f5f5;strokeColor=#666666;" vertex="1" parent="91bVKzT9zRqBgBeDqGgl-140">
          <mxGeometry x="170" y="10" width="120" height="40" as="geometry" />
        </mxCell>
        <mxCell id="91bVKzT9zRqBgBeDqGgl-111" value="" style="edgeStyle=orthogonalEdgeStyle;rounded=0;orthogonalLoop=1;jettySize=auto;html=1;" edge="1" parent="91bVKzT9zRqBgBeDqGgl-140" source="91bVKzT9zRqBgBeDqGgl-93" target="91bVKzT9zRqBgBeDqGgl-53">
          <mxGeometry y="-70" as="geometry" />
        </mxCell>
        <mxCell id="91bVKzT9zRqBgBeDqGgl-93" value="模型文件:模型参数" style="rounded=0;whiteSpace=wrap;html=1;gradientColor=#b3b3b3;fillColor=#f5f5f5;strokeColor=#666666;" vertex="1" parent="91bVKzT9zRqBgBeDqGgl-140">
          <mxGeometry x="10" y="10" width="120" height="40" as="geometry" />
        </mxCell>
        <mxCell id="91bVKzT9zRqBgBeDqGgl-94" value="onnx" style="rounded=0;whiteSpace=wrap;html=1;gradientColor=#b3b3b3;fillColor=#f5f5f5;strokeColor=#666666;" vertex="1" parent="91bVKzT9zRqBgBeDqGgl-140">
          <mxGeometry x="330" y="10" width="120" height="40" as="geometry" />
        </mxCell>
        <mxCell id="91bVKzT9zRqBgBeDqGgl-112" value="" style="edgeStyle=orthogonalEdgeStyle;rounded=0;orthogonalLoop=1;jettySize=auto;html=1;" edge="1" parent="91bVKzT9zRqBgBeDqGgl-140" source="91bVKzT9zRqBgBeDqGgl-53" target="91bVKzT9zRqBgBeDqGgl-94">
          <mxGeometry y="-70" as="geometry" />
        </mxCell>
        <mxCell id="91bVKzT9zRqBgBeDqGgl-95" value="engine模型文件" style="rounded=0;whiteSpace=wrap;html=1;gradientColor=#b3b3b3;fillColor=#f5f5f5;strokeColor=#666666;" vertex="1" parent="91bVKzT9zRqBgBeDqGgl-140">
          <mxGeometry x="490" y="10" width="120" height="40" as="geometry" />
        </mxCell>
        <mxCell id="91bVKzT9zRqBgBeDqGgl-113" value="" style="edgeStyle=orthogonalEdgeStyle;rounded=0;orthogonalLoop=1;jettySize=auto;html=1;" edge="1" parent="91bVKzT9zRqBgBeDqGgl-140" source="91bVKzT9zRqBgBeDqGgl-94" target="91bVKzT9zRqBgBeDqGgl-95">
          <mxGeometry y="-70" as="geometry" />
        </mxCell>
        <mxCell id="91bVKzT9zRqBgBeDqGgl-127" value="&lt;h2&gt;法一&lt;/h2&gt;" style="text;html=1;strokeColor=none;fillColor=none;align=center;verticalAlign=middle;whiteSpace=wrap;rounded=0;" vertex="1" parent="91bVKzT9zRqBgBeDqGgl-140">
          <mxGeometry x="630" y="10" width="50" height="40" as="geometry" />
        </mxCell>
        <mxCell id="91bVKzT9zRqBgBeDqGgl-146" value="" style="group" vertex="1" connectable="0" parent="1">
          <mxGeometry x="200" y="160" width="1040" height="200" as="geometry" />
        </mxCell>
        <mxCell id="91bVKzT9zRqBgBeDqGgl-29" value="" style="rounded=0;whiteSpace=wrap;html=1;fillColor=#f9f7ed;strokeColor=#36393d;" vertex="1" parent="91bVKzT9zRqBgBeDqGgl-146">
          <mxGeometry width="1040" height="200" as="geometry" />
        </mxCell>
        <mxCell id="91bVKzT9zRqBgBeDqGgl-30" value="" style="group" vertex="1" connectable="0" parent="91bVKzT9zRqBgBeDqGgl-146">
          <mxGeometry x="40" y="40" width="960" height="120" as="geometry" />
        </mxCell>
        <mxCell id="91bVKzT9zRqBgBeDqGgl-9" value="测试数据集" style="rounded=0;whiteSpace=wrap;html=1;gradientColor=#b3b3b3;fillColor=#f5f5f5;strokeColor=#666666;" vertex="1" parent="91bVKzT9zRqBgBeDqGgl-30">
          <mxGeometry width="80" height="40" as="geometry" />
        </mxCell>
        <mxCell id="91bVKzT9zRqBgBeDqGgl-10" value="预处理" style="rounded=0;whiteSpace=wrap;html=1;gradientColor=#b3b3b3;fillColor=#f5f5f5;strokeColor=#666666;" vertex="1" parent="91bVKzT9zRqBgBeDqGgl-30">
          <mxGeometry x="120" width="80" height="40" as="geometry" />
        </mxCell>
        <mxCell id="91bVKzT9zRqBgBeDqGgl-17" value="" style="edgeStyle=orthogonalEdgeStyle;rounded=0;orthogonalLoop=1;jettySize=auto;html=1;" edge="1" parent="91bVKzT9zRqBgBeDqGgl-30" source="91bVKzT9zRqBgBeDqGgl-9" target="91bVKzT9zRqBgBeDqGgl-10">
          <mxGeometry relative="1" as="geometry" />
        </mxCell>
        <mxCell id="91bVKzT9zRqBgBeDqGgl-33" value="&lt;h1&gt;推理&lt;/h1&gt;" style="text;html=1;strokeColor=none;fillColor=none;align=center;verticalAlign=middle;whiteSpace=wrap;rounded=0;" vertex="1" parent="91bVKzT9zRqBgBeDqGgl-146">
          <mxGeometry y="130" width="80" height="40" as="geometry" />
        </mxCell>
        <mxCell id="91bVKzT9zRqBgBeDqGgl-13" value="特征图" style="rounded=0;whiteSpace=wrap;html=1;gradientColor=#b3b3b3;fillColor=#f5f5f5;strokeColor=#666666;" vertex="1" parent="91bVKzT9zRqBgBeDqGgl-146">
          <mxGeometry x="420" y="40" width="120" height="40" as="geometry" />
        </mxCell>
        <mxCell id="91bVKzT9zRqBgBeDqGgl-19" value="" style="edgeStyle=orthogonalEdgeStyle;rounded=0;orthogonalLoop=1;jettySize=auto;html=1;" edge="1" parent="91bVKzT9zRqBgBeDqGgl-146" source="91bVKzT9zRqBgBeDqGgl-11" target="91bVKzT9zRqBgBeDqGgl-13">
          <mxGeometry as="geometry" />
        </mxCell>
        <mxCell id="91bVKzT9zRqBgBeDqGgl-20" value="" style="edgeStyle=orthogonalEdgeStyle;rounded=0;orthogonalLoop=1;jettySize=auto;html=1;" edge="1" parent="91bVKzT9zRqBgBeDqGgl-146" source="91bVKzT9zRqBgBeDqGgl-13" target="91bVKzT9zRqBgBeDqGgl-14">
          <mxGeometry as="geometry" />
        </mxCell>
        <mxCell id="91bVKzT9zRqBgBeDqGgl-11" value="深度学习网络" style="rounded=0;whiteSpace=wrap;html=1;gradientColor=#b3b3b3;fillColor=#f5f5f5;strokeColor=#666666;" vertex="1" parent="91bVKzT9zRqBgBeDqGgl-146">
          <mxGeometry x="290" y="40" width="80" height="40" as="geometry" />
        </mxCell>
        <mxCell id="91bVKzT9zRqBgBeDqGgl-18" value="" style="edgeStyle=orthogonalEdgeStyle;rounded=0;orthogonalLoop=1;jettySize=auto;html=1;" edge="1" parent="91bVKzT9zRqBgBeDqGgl-146" source="91bVKzT9zRqBgBeDqGgl-10" target="91bVKzT9zRqBgBeDqGgl-11">
          <mxGeometry as="geometry" />
        </mxCell>
        <mxCell id="91bVKzT9zRqBgBeDqGgl-24" value="" style="edgeStyle=orthogonalEdgeStyle;rounded=0;orthogonalLoop=1;jettySize=auto;html=1;" edge="1" parent="91bVKzT9zRqBgBeDqGgl-146" source="91bVKzT9zRqBgBeDqGgl-12" target="91bVKzT9zRqBgBeDqGgl-11">
          <mxGeometry as="geometry" />
        </mxCell>
        <mxCell id="91bVKzT9zRqBgBeDqGgl-12" value="模型文件:模型参数" style="rounded=0;whiteSpace=wrap;html=1;gradientColor=#b3b3b3;fillColor=#f5f5f5;strokeColor=#666666;" vertex="1" parent="91bVKzT9zRqBgBeDqGgl-146">
          <mxGeometry x="270" y="120" width="120" height="40" as="geometry" />
        </mxCell>
        <mxCell id="91bVKzT9zRqBgBeDqGgl-22" value="分类信息" style="rounded=0;whiteSpace=wrap;html=1;gradientColor=#b3b3b3;fillColor=#f5f5f5;strokeColor=#666666;" vertex="1" parent="91bVKzT9zRqBgBeDqGgl-146">
          <mxGeometry x="900" y="40" width="120" height="40" as="geometry" />
        </mxCell>
        <mxCell id="91bVKzT9zRqBgBeDqGgl-23" value="" style="edgeStyle=orthogonalEdgeStyle;rounded=0;orthogonalLoop=1;jettySize=auto;html=1;" edge="1" parent="91bVKzT9zRqBgBeDqGgl-146" source="91bVKzT9zRqBgBeDqGgl-15" target="91bVKzT9zRqBgBeDqGgl-22">
          <mxGeometry as="geometry" />
        </mxCell>
        <mxCell id="91bVKzT9zRqBgBeDqGgl-15" value="后处理" style="rounded=0;whiteSpace=wrap;html=1;gradientColor=#b3b3b3;fillColor=#f5f5f5;strokeColor=#666666;" vertex="1" parent="91bVKzT9zRqBgBeDqGgl-146">
          <mxGeometry x="740" y="40" width="120" height="40" as="geometry" />
        </mxCell>
        <mxCell id="91bVKzT9zRqBgBeDqGgl-21" value="" style="edgeStyle=orthogonalEdgeStyle;rounded=0;orthogonalLoop=1;jettySize=auto;html=1;" edge="1" parent="91bVKzT9zRqBgBeDqGgl-146" source="91bVKzT9zRqBgBeDqGgl-14" target="91bVKzT9zRqBgBeDqGgl-15">
          <mxGeometry as="geometry" />
        </mxCell>
        <mxCell id="91bVKzT9zRqBgBeDqGgl-14" value="解码" style="rounded=0;whiteSpace=wrap;html=1;gradientColor=#b3b3b3;fillColor=#f5f5f5;strokeColor=#666666;" vertex="1" parent="91bVKzT9zRqBgBeDqGgl-146">
          <mxGeometry x="580" y="40" width="120" height="40" as="geometry" />
        </mxCell>
        <mxCell id="91bVKzT9zRqBgBeDqGgl-108" value="" style="group" vertex="1" connectable="0" parent="91bVKzT9zRqBgBeDqGgl-146">
          <mxGeometry x="250" y="30" width="160" height="150" as="geometry" />
        </mxCell>
        <mxCell id="91bVKzT9zRqBgBeDqGgl-99" value="" style="endArrow=none;dashed=1;html=1;dashPattern=1 3;strokeWidth=2;" edge="1" parent="91bVKzT9zRqBgBeDqGgl-108">
          <mxGeometry x="180.5" y="180" width="50" height="50" as="geometry">
            <mxPoint x="160" y="150" as="sourcePoint" />
            <mxPoint x="160" as="targetPoint" />
          </mxGeometry>
        </mxCell>
        <mxCell id="91bVKzT9zRqBgBeDqGgl-98" value="" style="endArrow=none;dashed=1;html=1;dashPattern=1 3;strokeWidth=2;" edge="1" parent="91bVKzT9zRqBgBeDqGgl-108">
          <mxGeometry x="200" y="180" width="50" height="50" as="geometry">
            <mxPoint y="150" as="sourcePoint" />
            <mxPoint as="targetPoint" />
          </mxGeometry>
        </mxCell>
        <mxCell id="91bVKzT9zRqBgBeDqGgl-100" value="" style="endArrow=none;dashed=1;html=1;dashPattern=1 3;strokeWidth=2;" edge="1" parent="91bVKzT9zRqBgBeDqGgl-108">
          <mxGeometry x="200" y="160" width="50" height="50" as="geometry">
            <mxPoint as="sourcePoint" />
            <mxPoint x="160" as="targetPoint" />
          </mxGeometry>
        </mxCell>
        <mxCell id="91bVKzT9zRqBgBeDqGgl-102" value="" style="endArrow=none;dashed=1;html=1;dashPattern=1 3;strokeWidth=2;" edge="1" parent="91bVKzT9zRqBgBeDqGgl-108">
          <mxGeometry x="200" y="180" width="50" height="50" as="geometry">
            <mxPoint y="150" as="sourcePoint" />
            <mxPoint x="160" y="150" as="targetPoint" />
          </mxGeometry>
        </mxCell>
      </root>
    </mxGraphModel>
  </diagram>
</mxfile>
